<svg width="338" height="370" viewBox="0 0 338 370" fill="none" xmlns="http://www.w3.org/2000/svg">
<path fill-rule="evenodd" clip-rule="evenodd" d="M133 266C206.454 266 266 206.454 266 133C266 59.5461 206.454 0 133 0C59.5461 0 0 59.5461 0 133C0 206.454 59.5461 266 133 266ZM133 215C178.287 215 215 178.287 215 133C215 87.7126 178.287 51 133 51C87.7126 51 51 87.7126 51 133C51 178.287 87.7126 215 133 215Z" fill="#F0F8FF"/>
<path d="M189 240.311L226.806 207.857L337.535 336.85L299.729 369.303L189 240.311Z" fill="#F0F8FF"/>
</svg>
